G04 #@! TF.GenerationSoftware,KiCad,Pcbnew,(6.0.0)*
G04 #@! TF.CreationDate,2022-01-08T18:45:48-05:00*
G04 #@! TF.ProjectId,anavi-thermometer,616e6176-692d-4746-9865-726d6f6d6574,rev?*
G04 #@! TF.SameCoordinates,Original*
G04 #@! TF.FileFunction,Copper,L1,Top*
G04 #@! TF.FilePolarity,Positive*
%FSLAX46Y46*%
G04 Gerber Fmt 4.6, Leading zero omitted, Abs format (unit mm)*
G04 Created by KiCad (PCBNEW (6.0.0)) date 2022-01-08 18:45:48*
%MOMM*%
%LPD*%
G01*
G04 APERTURE LIST*
G04 Aperture macros list*
%AMRoundRect*
0 Rectangle with rounded corners*
0 $1 Rounding radius*
0 $2 $3 $4 $5 $6 $7 $8 $9 X,Y pos of 4 corners*
0 Add a 4 corners polygon primitive as box body*
4,1,4,$2,$3,$4,$5,$6,$7,$8,$9,$2,$3,0*
0 Add four circle primitives for the rounded corners*
1,1,$1+$1,$2,$3*
1,1,$1+$1,$4,$5*
1,1,$1+$1,$6,$7*
1,1,$1+$1,$8,$9*
0 Add four rect primitives between the rounded corners*
20,1,$1+$1,$2,$3,$4,$5,0*
20,1,$1+$1,$4,$5,$6,$7,0*
20,1,$1+$1,$6,$7,$8,$9,0*
20,1,$1+$1,$8,$9,$2,$3,0*%
G04 Aperture macros list end*
G04 #@! TA.AperFunction,SMDPad,CuDef*
%ADD10RoundRect,0.250000X0.625000X-0.375000X0.625000X0.375000X-0.625000X0.375000X-0.625000X-0.375000X0*%
G04 #@! TD*
G04 #@! TA.AperFunction,SMDPad,CuDef*
%ADD11RoundRect,0.200000X-0.275000X0.200000X-0.275000X-0.200000X0.275000X-0.200000X0.275000X0.200000X0*%
G04 #@! TD*
G04 #@! TA.AperFunction,ComponentPad*
%ADD12C,2.000000*%
G04 #@! TD*
G04 #@! TA.AperFunction,ComponentPad*
%ADD13R,1.727200X2.032000*%
G04 #@! TD*
G04 #@! TA.AperFunction,ComponentPad*
%ADD14O,1.727200X2.032000*%
G04 #@! TD*
G04 #@! TA.AperFunction,ComponentPad*
%ADD15R,1.700000X1.700000*%
G04 #@! TD*
G04 #@! TA.AperFunction,ComponentPad*
%ADD16O,1.700000X1.700000*%
G04 #@! TD*
G04 #@! TA.AperFunction,ComponentPad*
%ADD17O,1.600000X2.000000*%
G04 #@! TD*
G04 #@! TA.AperFunction,SMDPad,CuDef*
%ADD18R,1.200000X2.300000*%
G04 #@! TD*
G04 #@! TA.AperFunction,ComponentPad*
%ADD19O,1.400000X3.200000*%
G04 #@! TD*
G04 #@! TA.AperFunction,ViaPad*
%ADD20C,0.850000*%
G04 #@! TD*
G04 #@! TA.AperFunction,Conductor*
%ADD21C,0.254000*%
G04 #@! TD*
G04 #@! TA.AperFunction,Conductor*
%ADD22C,0.500000*%
G04 #@! TD*
G04 APERTURE END LIST*
D10*
X124000000Y-111400000D03*
X124000000Y-108600000D03*
D11*
X124000000Y-102175000D03*
X124000000Y-103825000D03*
D12*
X130250000Y-78750000D03*
X123750000Y-78750000D03*
X130250000Y-83250000D03*
X123750000Y-83250000D03*
D13*
X155783676Y-81563234D03*
D14*
X153243676Y-81563234D03*
X150703676Y-81563234D03*
D15*
X124000000Y-89000000D03*
D16*
X124000000Y-91540000D03*
X124000000Y-94080000D03*
X124000000Y-96620000D03*
D17*
X136380000Y-87199373D03*
X138920000Y-87199373D03*
X141460000Y-87199373D03*
X144000000Y-87199373D03*
D18*
X143500000Y-82750000D03*
X141000000Y-82750000D03*
X139000000Y-82750000D03*
X136500000Y-82750000D03*
D19*
X145850000Y-80000000D03*
X134150000Y-80000000D03*
D20*
X142000000Y-93000000D03*
X142000000Y-105000000D03*
X152000000Y-109000000D03*
X153000000Y-111000000D03*
X126000000Y-102000000D03*
X139000000Y-99000000D03*
X130000000Y-110000000D03*
X134000000Y-89000000D03*
X139000000Y-105000000D03*
X156000000Y-85000000D03*
X132000000Y-94000000D03*
X142000000Y-101000000D03*
X151000000Y-103000000D03*
X147000000Y-90000000D03*
D21*
X124000000Y-103825000D02*
X124000000Y-108600000D01*
D22*
X122621480Y-97998520D02*
X122621480Y-110621480D01*
X130250000Y-78750000D02*
X131250000Y-77750000D01*
X133420627Y-87199373D02*
X124000000Y-96620000D01*
X123400000Y-111400000D02*
X124000000Y-111400000D01*
X122621480Y-110621480D02*
X123400000Y-111400000D01*
X136500000Y-82750000D02*
X136500000Y-87079373D01*
X131250000Y-77750000D02*
X135750000Y-77750000D01*
X136500000Y-78500000D02*
X137103520Y-77896480D01*
X136380000Y-89380000D02*
X136380000Y-87199373D01*
X152116922Y-77896480D02*
X155783676Y-81563234D01*
X123750000Y-78750000D02*
X130250000Y-78750000D01*
X142000000Y-93000000D02*
X140000000Y-93000000D01*
X136500000Y-87079373D02*
X136380000Y-87199373D01*
X140000000Y-93000000D02*
X136380000Y-89380000D01*
X124000000Y-96620000D02*
X122621480Y-97998520D01*
X136500000Y-82750000D02*
X136500000Y-78500000D01*
X135750000Y-77750000D02*
X136500000Y-78500000D01*
X136380000Y-87199373D02*
X133420627Y-87199373D01*
X137103520Y-77896480D02*
X152116922Y-77896480D01*
D21*
X141460000Y-88460000D02*
X141460000Y-87199373D01*
X144000000Y-91000000D02*
X141460000Y-88460000D01*
X142000000Y-105000000D02*
X144000000Y-103000000D01*
X144000000Y-103000000D02*
X144000000Y-91000000D01*
X153140442Y-84000000D02*
X150703676Y-81563234D01*
X156139166Y-84000000D02*
X153140442Y-84000000D01*
X156805511Y-96492480D02*
X156805511Y-84666345D01*
X156297991Y-104702009D02*
X156297991Y-97000000D01*
X156297991Y-97000000D02*
X156805511Y-96492480D01*
X156805511Y-84666345D02*
X156139166Y-84000000D01*
X152000000Y-109000000D02*
X156297991Y-104702009D01*
X157798480Y-106201520D02*
X153000000Y-111000000D01*
X157798480Y-84798480D02*
X157798480Y-106201520D01*
X156492480Y-83492480D02*
X157798480Y-84798480D01*
X155172922Y-83492480D02*
X156492480Y-83492480D01*
X153243676Y-81563234D02*
X155172922Y-83492480D01*
X126000000Y-102000000D02*
X124175000Y-102000000D01*
X124175000Y-102000000D02*
X124000000Y-102175000D01*
X135000000Y-105000000D02*
X130000000Y-110000000D01*
X139000000Y-105000000D02*
X135000000Y-105000000D01*
X134000000Y-89000000D02*
X134000000Y-94000000D01*
X134000000Y-94000000D02*
X139000000Y-99000000D01*
D22*
X150000000Y-84000000D02*
X151000000Y-85000000D01*
X151000000Y-85000000D02*
X156000000Y-85000000D01*
X143500000Y-82750000D02*
X145750000Y-82750000D01*
X147000000Y-84000000D02*
X150000000Y-84000000D01*
X145750000Y-82750000D02*
X147000000Y-84000000D01*
X139000000Y-101000000D02*
X132000000Y-94000000D01*
X142000000Y-101000000D02*
X139000000Y-101000000D01*
X146000000Y-90000000D02*
X147000000Y-90000000D01*
X144000000Y-88000000D02*
X146000000Y-90000000D01*
X147000000Y-90000000D02*
X151000000Y-94000000D01*
X151000000Y-94000000D02*
X151000000Y-103000000D01*
X144000000Y-87199373D02*
X144000000Y-88000000D01*
M02*
