G04 #@! TF.GenerationSoftware,KiCad,Pcbnew,(6.0.0)*
G04 #@! TF.CreationDate,2022-01-08T18:45:48-05:00*
G04 #@! TF.ProjectId,anavi-thermometer,616e6176-692d-4746-9865-726d6f6d6574,rev?*
G04 #@! TF.SameCoordinates,Original*
G04 #@! TF.FileFunction,Copper,L2,Bot*
G04 #@! TF.FilePolarity,Positive*
%FSLAX46Y46*%
G04 Gerber Fmt 4.6, Leading zero omitted, Abs format (unit mm)*
G04 Created by KiCad (PCBNEW (6.0.0)) date 2022-01-08 18:45:48*
%MOMM*%
%LPD*%
G01*
G04 APERTURE LIST*
G04 Aperture macros list*
%AMRoundRect*
0 Rectangle with rounded corners*
0 $1 Rounding radius*
0 $2 $3 $4 $5 $6 $7 $8 $9 X,Y pos of 4 corners*
0 Add a 4 corners polygon primitive as box body*
4,1,4,$2,$3,$4,$5,$6,$7,$8,$9,$2,$3,0*
0 Add four circle primitives for the rounded corners*
1,1,$1+$1,$2,$3*
1,1,$1+$1,$4,$5*
1,1,$1+$1,$6,$7*
1,1,$1+$1,$8,$9*
0 Add four rect primitives between the rounded corners*
20,1,$1+$1,$2,$3,$4,$5,0*
20,1,$1+$1,$4,$5,$6,$7,0*
20,1,$1+$1,$6,$7,$8,$9,0*
20,1,$1+$1,$8,$9,$2,$3,0*%
G04 Aperture macros list end*
G04 #@! TA.AperFunction,ComponentPad*
%ADD10C,2.000000*%
G04 #@! TD*
G04 #@! TA.AperFunction,ComponentPad*
%ADD11R,1.727200X2.032000*%
G04 #@! TD*
G04 #@! TA.AperFunction,ComponentPad*
%ADD12O,1.727200X2.032000*%
G04 #@! TD*
G04 #@! TA.AperFunction,ComponentPad*
%ADD13R,1.700000X1.700000*%
G04 #@! TD*
G04 #@! TA.AperFunction,ComponentPad*
%ADD14O,1.700000X1.700000*%
G04 #@! TD*
G04 #@! TA.AperFunction,ComponentPad*
%ADD15O,1.600000X2.000000*%
G04 #@! TD*
G04 #@! TA.AperFunction,ComponentPad*
%ADD16O,1.400000X3.200000*%
G04 #@! TD*
G04 #@! TA.AperFunction,SMDPad,CuDef*
%ADD17RoundRect,0.250000X0.250000X0.475000X-0.250000X0.475000X-0.250000X-0.475000X0.250000X-0.475000X0*%
G04 #@! TD*
G04 #@! TA.AperFunction,SMDPad,CuDef*
%ADD18RoundRect,0.218750X0.256250X-0.218750X0.256250X0.218750X-0.256250X0.218750X-0.256250X-0.218750X0*%
G04 #@! TD*
G04 #@! TA.AperFunction,SMDPad,CuDef*
%ADD19RoundRect,0.218750X-0.256250X0.218750X-0.256250X-0.218750X0.256250X-0.218750X0.256250X0.218750X0*%
G04 #@! TD*
G04 #@! TA.AperFunction,SMDPad,CuDef*
%ADD20R,1.500000X2.000000*%
G04 #@! TD*
G04 #@! TA.AperFunction,SMDPad,CuDef*
%ADD21R,3.800000X2.000000*%
G04 #@! TD*
G04 #@! TA.AperFunction,SMDPad,CuDef*
%ADD22RoundRect,0.243750X0.243750X0.456250X-0.243750X0.456250X-0.243750X-0.456250X0.243750X-0.456250X0*%
G04 #@! TD*
G04 #@! TA.AperFunction,SMDPad,CuDef*
%ADD23R,2.500000X1.100000*%
G04 #@! TD*
G04 #@! TA.AperFunction,SMDPad,CuDef*
%ADD24R,1.100000X2.500000*%
G04 #@! TD*
G04 #@! TA.AperFunction,SMDPad,CuDef*
%ADD25RoundRect,0.200000X-0.275000X0.200000X-0.275000X-0.200000X0.275000X-0.200000X0.275000X0.200000X0*%
G04 #@! TD*
G04 #@! TA.AperFunction,ViaPad*
%ADD26C,0.850000*%
G04 #@! TD*
G04 #@! TA.AperFunction,Conductor*
%ADD27C,0.500000*%
G04 #@! TD*
G04 #@! TA.AperFunction,Conductor*
%ADD28C,0.254000*%
G04 #@! TD*
G04 APERTURE END LIST*
D10*
X130250000Y-78750000D03*
X123750000Y-78750000D03*
X130250000Y-83250000D03*
X123750000Y-83250000D03*
D11*
X155783676Y-81563234D03*
D12*
X153243676Y-81563234D03*
X150703676Y-81563234D03*
D13*
X124000000Y-89000000D03*
D14*
X124000000Y-91540000D03*
X124000000Y-94080000D03*
X124000000Y-96620000D03*
D15*
X136380000Y-87199373D03*
X138920000Y-87199373D03*
X141460000Y-87199373D03*
X144000000Y-87199373D03*
D16*
X145850000Y-80000000D03*
X134150000Y-80000000D03*
D17*
X153950000Y-85000000D03*
X152050000Y-85000000D03*
D18*
X128000000Y-109787500D03*
X128000000Y-108212500D03*
D19*
X132000000Y-90425000D03*
X132000000Y-92000000D03*
D20*
X151700000Y-87850000D03*
X154000000Y-87850000D03*
X156300000Y-87850000D03*
D21*
X154000000Y-94150000D03*
D22*
X152937500Y-97000000D03*
X151062500Y-97000000D03*
D23*
X132725340Y-111087500D03*
X132725340Y-109087500D03*
X132725340Y-107087500D03*
X132725340Y-105087500D03*
X132725340Y-103087500D03*
X132725340Y-101087500D03*
X132725340Y-99087500D03*
X132725340Y-97087500D03*
X148125340Y-97087500D03*
X148125340Y-99087500D03*
X148125340Y-101087500D03*
X148125340Y-103087500D03*
X148125340Y-105087500D03*
X148125340Y-107087500D03*
X148125340Y-109087500D03*
X148125340Y-111087500D03*
D24*
X135415340Y-95387500D03*
X137415340Y-95387500D03*
X139415340Y-95387500D03*
X141415340Y-95387500D03*
X143415340Y-95387500D03*
X145415340Y-95387500D03*
D25*
X146556323Y-85438213D03*
X146556323Y-87088213D03*
X148515750Y-85425933D03*
X148515750Y-87075933D03*
D26*
X142000000Y-93000000D03*
X142000000Y-105000000D03*
X152000000Y-109000000D03*
X153000000Y-111000000D03*
X126000000Y-102000000D03*
X139000000Y-99000000D03*
X130000000Y-110000000D03*
X134000000Y-89000000D03*
X139000000Y-105000000D03*
X156000000Y-85000000D03*
X132000000Y-94000000D03*
X142000000Y-101000000D03*
X151000000Y-103000000D03*
X147000000Y-90000000D03*
D27*
X147425340Y-99087500D02*
X147425340Y-97087500D01*
X151062500Y-97000000D02*
X147512840Y-97000000D01*
X155486766Y-81563234D02*
X155783676Y-81563234D01*
X147512840Y-97000000D02*
X147425340Y-97087500D01*
X142000000Y-93000000D02*
X147000000Y-93000000D01*
X151700000Y-85350000D02*
X155486766Y-81563234D01*
X147000000Y-93000000D02*
X147425340Y-93425340D01*
X147425340Y-93425340D02*
X147425340Y-97087500D01*
X151700000Y-87850000D02*
X151700000Y-85350000D01*
X127212500Y-108212500D02*
X128000000Y-108212500D01*
X153000000Y-90000000D02*
X154000000Y-89000000D01*
X149438213Y-85438213D02*
X150000000Y-86000000D01*
X135694373Y-90425000D02*
X132000000Y-90425000D01*
X146556323Y-85438213D02*
X149438213Y-85438213D01*
X127912500Y-97087500D02*
X125000000Y-100000000D01*
X124000000Y-89000000D02*
X130575000Y-89000000D01*
D28*
X133337840Y-107000000D02*
X133425340Y-107087500D01*
D27*
X151000000Y-90000000D02*
X151000000Y-95062500D01*
X138920000Y-87199373D02*
X135694373Y-90425000D01*
X154000000Y-89000000D02*
X154000000Y-87850000D01*
D28*
X128000000Y-108212500D02*
X129212500Y-107000000D01*
D27*
X150000000Y-89000000D02*
X151000000Y-90000000D01*
X133425340Y-97087500D02*
X133425340Y-92694033D01*
D28*
X129212500Y-107000000D02*
X133337840Y-107000000D01*
D27*
X138920000Y-87199373D02*
X140681160Y-85438213D01*
X133425340Y-92694033D02*
X135694373Y-90425000D01*
X151000000Y-90000000D02*
X153000000Y-90000000D01*
X140681160Y-85438213D02*
X146556323Y-85438213D01*
X125000000Y-106000000D02*
X127212500Y-108212500D01*
X125000000Y-100000000D02*
X125000000Y-106000000D01*
X150000000Y-86000000D02*
X150000000Y-89000000D01*
X133425340Y-97087500D02*
X127912500Y-97087500D01*
X130575000Y-89000000D02*
X132000000Y-90425000D01*
X151000000Y-95062500D02*
X152937500Y-97000000D01*
X145000000Y-90000000D02*
X146556323Y-88443677D01*
X141460000Y-88460000D02*
X143000000Y-90000000D01*
D28*
X147425340Y-107087500D02*
X144087500Y-107087500D01*
D27*
X143000000Y-90000000D02*
X145000000Y-90000000D01*
X146556323Y-88443677D02*
X146556323Y-87088213D01*
X141460000Y-87199373D02*
X141460000Y-88460000D01*
D28*
X144087500Y-107087500D02*
X142000000Y-105000000D01*
X147425340Y-109087500D02*
X151912500Y-109087500D01*
X151912500Y-109087500D02*
X152000000Y-109000000D01*
X153000000Y-111000000D02*
X147512840Y-111000000D01*
X147512840Y-111000000D02*
X147425340Y-111087500D01*
X133425340Y-105087500D02*
X129087500Y-105087500D01*
X129087500Y-105087500D02*
X126000000Y-102000000D01*
X140912500Y-100912500D02*
X139000000Y-99000000D01*
X129787500Y-109787500D02*
X130000000Y-110000000D01*
X147425340Y-103087500D02*
X140912500Y-103087500D01*
X140912500Y-103087500D02*
X139000000Y-105000000D01*
X130250000Y-83250000D02*
X134000000Y-87000000D01*
X128000000Y-109787500D02*
X129787500Y-109787500D01*
X140912500Y-103087500D02*
X140912500Y-100912500D01*
X134000000Y-87000000D02*
X134000000Y-89000000D01*
X123750000Y-83250000D02*
X130250000Y-83250000D01*
D27*
X156000000Y-87550000D02*
X156300000Y-87850000D01*
X156000000Y-85000000D02*
X153950000Y-85000000D01*
X156000000Y-85000000D02*
X156000000Y-87550000D01*
X147337840Y-101000000D02*
X147425340Y-101087500D01*
X142000000Y-101000000D02*
X147337840Y-101000000D01*
X132000000Y-92000000D02*
X132000000Y-94000000D01*
X129540000Y-91540000D02*
X130000000Y-92000000D01*
X130000000Y-92000000D02*
X132000000Y-92000000D01*
X124000000Y-91540000D02*
X129540000Y-91540000D01*
D28*
X145000000Y-78000000D02*
X145850000Y-78850000D01*
X145850000Y-78850000D02*
X145850000Y-80000000D01*
X135000000Y-78000000D02*
X145000000Y-78000000D01*
X134150000Y-78850000D02*
X135000000Y-78000000D01*
X134150000Y-80000000D02*
X134150000Y-78850000D01*
D27*
X151000000Y-104000000D02*
X149912500Y-105087500D01*
X148515750Y-87075933D02*
X148515750Y-88484250D01*
X148515750Y-88484250D02*
X147000000Y-90000000D01*
X149912500Y-105087500D02*
X147425340Y-105087500D01*
X151000000Y-104000000D02*
X151000000Y-103000000D01*
M02*
