M48
; DRILL file {KiCad (6.0.0)} date Sat Jan  8 18:46:35 2022
; FORMAT={-:-/ absolute / inch / decimal}
; #@! TF.CreationDate,2022-01-08T18:46:35-05:00
; #@! TF.GenerationSoftware,Kicad,Pcbnew,(6.0.0)
; #@! TF.FileFunction,Plated,1,2,PTH
FMAT,2
INCH
; #@! TA.AperFunction,Plated,PTH,ViaDrill
T1C0.0157
; #@! TA.AperFunction,Plated,PTH,ComponentDrill
T2C0.0276
; #@! TA.AperFunction,Plated,PTH,ComponentDrill
T3C0.0394
; #@! TA.AperFunction,Plated,PTH,ComponentDrill
T4C0.0400
; #@! TA.AperFunction,Plated,PTH,ComponentDrill
T5C0.0433
%
G90
G05
T1
X4.9606Y-4.0157
X5.1181Y-4.3307
X5.1969Y-3.7008
X5.2756Y-3.5039
X5.4724Y-3.8976
X5.4724Y-4.1339
X5.5906Y-3.6614
X5.5906Y-3.9764
X5.5906Y-4.1339
X5.7874Y-3.5433
X5.9449Y-4.0551
X5.9843Y-4.2913
X6.0236Y-4.3701
X6.1417Y-3.3465
T3
X4.8819Y-3.5039
X4.8819Y-3.6039
X4.8819Y-3.7039
X4.8819Y-3.8039
X5.3693Y-3.433
X5.4693Y-3.433
X5.5693Y-3.433
X5.6693Y-3.433
T4
X5.9332Y-3.2112
X6.0332Y-3.2112
X6.1332Y-3.2112
T5
X4.872Y-3.1004
X4.872Y-3.2776
X5.128Y-3.1004
X5.128Y-3.2776
T2
G00X5.2815Y-3.185
M15
G01X5.2815Y-3.1142
M16
G05
G00X5.7421Y-3.185
M15
G01X5.7421Y-3.1142
M16
G05
T0
M30
